<?xml version="1.0" encoding="UTF-8" standalone="no"?>
<svg
   xmlns:dc="http://purl.org/dc/elements/1.1/"
   xmlns:cc="http://creativecommons.org/ns#"
   xmlns:rdf="http://www.w3.org/1999/02/22-rdf-syntax-ns#"
   xmlns:svg="http://www.w3.org/2000/svg"
   xmlns="http://www.w3.org/2000/svg"
   viewBox="0 0 1200.1044 1457.9264"
   height="1457.9264"
   width="1200.1044"
   id="svg10"
   version="1.1">
  <metadata
     id="metadata16">
    <rdf:RDF>
      <cc:Work
         rdf:about="">
        <dc:format>image/svg+xml</dc:format>
        <dc:type
           rdf:resource="http://purl.org/dc/dcmitype/StillImage" />
        <dc:title></dc:title>
      </cc:Work>
    </rdf:RDF>
  </metadata>
  <defs
     id="defs14" />
  <g
     transform="translate(-359.93613,-137)"
     id="g28">
    <path
       id="path34"
       d="m 1174.8125,1594.3169 c 0.7219,-0.2889 1.5844,-0.2534 1.9167,0.079 0.3323,0.3323 -0.2584,0.5687 -1.3125,0.5253 -1.165,-0.048 -1.4019,-0.285 -0.6042,-0.6042 z m 34,0 c 0.7219,-0.2889 1.5844,-0.2534 1.9167,0.079 0.3323,0.3323 -0.2584,0.5687 -1.3125,0.5253 -1.165,-0.048 -1.4019,-0.285 -0.6042,-0.6042 z m -44,-1 c 0.7219,-0.2889 1.5844,-0.2534 1.9167,0.079 0.3323,0.3323 -0.2584,0.5687 -1.3125,0.5253 -1.165,-0.048 -1.4019,-0.285 -0.6042,-0.6042 z M 1290,1558.6224 c 0,-0.2076 0.7875,-0.9951 1.75,-1.75 1.5861,-1.2438 1.6214,-1.2085 0.3776,0.3776 -1.3064,1.6657 -2.1276,2.1955 -2.1276,1.3724 z m -654,-2.9353 c 0,-0.1721 1.4625,-1.6346 3.25,-3.25 l 3.25,-2.9371 -2.93709,3.25 c -2.73778,3.0295 -3.56291,3.7097 -3.56291,2.9371 z m 540.8125,-17.3702 c 0.7219,-0.2889 1.5844,-0.2534 1.9167,0.079 0.3323,0.3323 -0.2584,0.5687 -1.3125,0.5253 -1.165,-0.048 -1.4019,-0.285 -0.6042,-0.6042 z M 574,1528.6224 c 0,-0.2076 0.7875,-0.9951 1.75,-1.75 1.58606,-1.2438 1.62143,-1.2085 0.37756,0.3776 -1.30637,1.6657 -2.12756,2.1955 -2.12756,1.3724 z m 665,-4.1224 c 1.8658,-1.925 3.6173,-3.5 3.8923,-3.5 0.275,0 -1.0265,1.575 -2.8923,3.5 -1.8658,1.925 -3.6173,3.5 -3.8923,3.5 -0.275,0 1.0265,-1.575 2.8923,-3.5 z m -657,-3.8776 c 0,-0.2076 0.7875,-0.9951 1.75,-1.75 1.58606,-1.2438 1.62143,-1.2085 0.37756,0.3776 -1.30637,1.6657 -2.12756,2.1955 -2.12756,1.3724 z m 733.0789,-26.2057 c 0.048,-1.165 0.285,-1.4019 0.6042,-0.6042 0.2889,0.7219 0.2534,1.5844 -0.079,1.9167 -0.3323,0.3323 -0.5687,-0.2584 -0.5253,-1.3125 z m 124.6711,-3.079 c 0.6875,-0.2774 1.8125,-0.2774 2.5,0 0.6875,0.2774 0.125,0.5044 -1.25,0.5044 -1.375,0 -1.9375,-0.227 -1.25,-0.5044 z m 22.0625,-0.021 c 0.7219,-0.2889 1.5844,-0.2534 1.9167,0.079 0.3323,0.3323 -0.2584,0.5687 -1.3125,0.5253 -1.165,-0.048 -1.4019,-0.285 -0.6042,-0.6042 z m -696.5625,-2.006 c 0.9625,-0.2516 2.5375,-0.2516 3.5,0 0.9625,0.2515 0.175,0.4573 -1.75,0.4573 -1.925,0 -2.7125,-0.2058 -1.75,-0.4573 z m 24.5,-0.016 c 1.2375,-0.2384 3.2625,-0.2384 4.5,0 1.2375,0.2383 0.225,0.4333 -2.25,0.4333 -2.475,0 -3.4875,-0.195 -2.25,-0.4333 z m -323.48097,-0.9873 c 0.97297,-0.2535 2.32297,-0.2369 3,0.037 0.67703,0.2739 -0.11903,0.4813 -1.76903,0.461 -1.65,-0.02 -2.20394,-0.2445 -1.23097,-0.4981 z m 31.98097,0 c 0.9625,-0.2516 2.5375,-0.2516 3.5,0 0.9625,0.2515 0.175,0.4573 -1.75,0.4573 -1.925,0 -2.7125,-0.2058 -1.75,-0.4573 z m 313.5,0.027 c 0.6875,-0.2774 1.8125,-0.2774 2.5,0 0.6875,0.2774 0.125,0.5044 -1.25,0.5044 -1.375,0 -1.9375,-0.227 -1.25,-0.5044 z m -298,-1 c 0.6875,-0.2774 1.8125,-0.2774 2.5,0 0.6875,0.2774 0.125,0.5044 -1.25,0.5044 -1.375,0 -1.9375,-0.227 -1.25,-0.5044 z m 312.0625,-0.021 c 0.72187,-0.2889 1.58438,-0.2534 1.91667,0.079 0.33229,0.3323 -0.25834,0.5687 -1.3125,0.5253 -1.16495,-0.048 -1.4019,-0.285 -0.60417,-0.6042 z m 373,0 c 0.7219,-0.2889 1.5844,-0.2534 1.9167,0.079 0.3323,0.3323 -0.2584,0.5687 -1.3125,0.5253 -1.165,-0.048 -1.4019,-0.285 -0.6042,-0.6042 z m 24,0 c 0.7219,-0.2889 1.5844,-0.2534 1.9167,0.079 0.3323,0.3323 -0.2584,0.5687 -1.3125,0.5253 -1.165,-0.048 -1.4019,-0.285 -0.6042,-0.6042 z m -386,-1 c 0.72187,-0.2889 1.58438,-0.2534 1.91667,0.079 0.33229,0.3323 -0.25834,0.5687 -1.3125,0.5253 -1.16495,-0.048 -1.4019,-0.285 -0.60417,-0.6042 z m 10,-1 c 0.72187,-0.2889 1.58438,-0.2534 1.91667,0.079 0.33229,0.3323 -0.25834,0.5687 -1.3125,0.5253 -1.16495,-0.048 -1.4019,-0.285 -0.60417,-0.6042 z M 1096.473,1417.5 c 10e-5,-37.95 0.1246,-53.3296 0.2767,-34.1768 0.152,19.1527 0.1519,50.2027 -2e-4,69 -0.1522,18.7972 -0.2766,3.1268 -0.2765,-34.8232 z m 156.7219,65 c 0.02,-1.65 0.2445,-2.2039 0.4981,-1.231 0.2535,0.973 0.2369,2.323 -0.037,3 -0.2739,0.6771 -0.4813,-0.119 -0.461,-1.769 z m 62.963,0.5 c 0,-1.375 0.227,-1.9375 0.5044,-1.25 0.2774,0.6875 0.2774,1.8125 0,2.5 -0.2774,0.6875 -0.5044,0.125 -0.5044,-1.25 z m -647.07895,-1.5833 c 0.048,-1.165 0.28494,-1.4019 0.60416,-0.6042 0.28887,0.7219 0.25335,1.5844 -0.0789,1.9167 -0.33229,0.3323 -0.56864,-0.2584 -0.52522,-1.3125 z M 670.15789,1470 c 0,-1.375 0.22698,-1.9375 0.50439,-1.25 0.27741,0.6875 0.27741,1.8125 0,2.5 -0.27741,0.6875 -0.50439,0.125 -0.50439,-1.25 z m 477.71451,-2.75 c -1.2438,-1.5861 -1.2085,-1.6214 0.3776,-0.3776 1.6657,1.3064 2.1955,2.1276 1.3724,2.1276 -0.2076,0 -0.9951,-0.7875 -1.75,-1.75 z m -544.79345,-0.8333 c 0.048,-1.165 0.28494,-1.4019 0.60416,-0.6042 0.28887,0.7219 0.25335,1.5844 -0.0789,1.9167 -0.33229,0.3323 -0.56864,-0.2584 -0.52522,-1.3125 z m 770.86725,-3.1667 -3.4462,-3.75 3.75,3.4462 c 3.4904,3.2076 4.2098,4.0538 3.4462,4.0538 -0.1671,0 -1.8546,-1.6875 -3.75,-3.75 z M 1529.5,1463 c 0.9955,-1.1 2.035,-2 2.31,-2 0.275,0 -0.3145,0.9 -1.31,2 -0.9955,1.1 -2.035,2 -2.31,2 -0.275,0 0.3145,-0.9 1.31,-2 z m -212.0712,-21.5 c 7e-4,-12.65 0.144,-17.6871 0.3185,-11.1936 0.1744,6.4936 0.1738,16.8436 0,23 -0.1752,6.1565 -0.3179,0.8436 -0.3172,-11.8064 z m -713.34985,13.9167 c 0.048,-1.165 0.28494,-1.4019 0.60416,-0.6042 0.28887,0.7219 0.25335,1.5844 -0.0789,1.9167 -0.33229,0.3323 -0.56864,-0.2584 -0.52522,-1.3125 z M 671.3605,1442 c 0,-5.225 0.16854,-7.3625 0.37454,-4.75 0.206,2.6125 0.206,6.8875 0,9.5 -0.206,2.6125 -0.37454,0.475 -0.37454,-4.75 z m 108.41593,1.2665 c 2.35204,-0.2112 5.95204,-0.2083 8,0.01 2.04796,0.2149 0.12357,0.3877 -4.27643,0.3841 -4.4,0 -6.07561,-0.1795 -3.72357,-0.3907 z M 605.30987,1431.5 c 0.006,-3.3 0.1923,-4.5294 0.41486,-2.7321 0.22256,1.7974 0.21797,4.4974 -0.0102,6 -0.22818,1.5027 -0.41027,0.032 -0.40466,-3.2679 z m -135.49737,3.8169 c 0.72187,-0.2889 1.58438,-0.2534 1.91667,0.079 0.33229,0.3323 -0.25834,0.5687 -1.3125,0.5253 -1.16495,-0.048 -1.4019,-0.285 -0.60417,-0.6042 z m 20,0 c 0.72187,-0.2889 1.58438,-0.2534 1.91667,0.079 0.33229,0.3323 -0.25834,0.5687 -1.3125,0.5253 -1.16495,-0.048 -1.4019,-0.285 -0.60417,-0.6042 z M 697.33621,1428 c 0,-4.125 0.17651,-5.8125 0.39226,-3.75 0.21574,2.0625 0.21574,5.4375 0,7.5 -0.21575,2.0625 -0.39226,0.375 -0.39226,-3.75 z M 1475,1431.6871 c 0,-0.1721 1.4625,-1.6346 3.25,-3.25 l 3.25,-2.9371 -2.9371,3.25 c -2.7378,3.0295 -3.5629,3.7097 -3.5629,2.9371 z M 1253.3999,1416.5 c 0,-8.25 0.1563,-11.4919 0.3442,-7.2043 0.1879,4.2876 0.1868,11.0376 0,15 -0.1893,3.9624 -0.3431,0.4543 -0.3417,-7.7957 z M 756.232,1425 c 0,-1.925 0.2058,-2.7125 0.45733,-1.75 0.25152,0.9625 0.25152,2.5375 0,3.5 -0.25153,0.9625 -0.45733,0.175 -0.45733,-1.75 z m 442.6404,0.25 c -1.2438,-1.5861 -1.2085,-1.6214 0.3776,-0.3776 0.9625,0.7549 1.75,1.5424 1.75,1.75 0,0.8231 -0.8212,0.2933 -2.1276,-1.3724 z M 760,1412.6224 c 0,-0.2076 0.7875,-0.9951 1.75,-1.75 1.58606,-1.2438 1.62143,-1.2085 0.37756,0.3776 -1.30637,1.6657 -2.12756,2.1955 -2.12756,1.3724 z m 357.0789,-7.2057 c 0.048,-1.165 0.285,-1.4019 0.6042,-0.6042 0.2889,0.7219 0.2534,1.5844 -0.079,1.9167 -0.3323,0.3323 -0.5687,-0.2584 -0.5253,-1.3125 z m -756.99995,-8 c 0.048,-1.165 0.28494,-1.4019 0.60416,-0.6042 0.28887,0.7219 0.25335,1.5844 -0.0789,1.9167 -0.33229,0.3323 -0.56864,-0.2584 -0.52522,-1.3125 z m 449.73355,-0.1 c 0.72187,-0.2889 1.58438,-0.2534 1.91667,0.079 0.33229,0.3323 -0.25834,0.5687 -1.3125,0.5253 -1.16495,-0.048 -1.4019,-0.285 -0.60417,-0.6042 z m 749.2664,-2.9002 c 0.048,-1.165 0.285,-1.4019 0.6042,-0.6042 0.2889,0.7219 0.2534,1.5844 -0.079,1.9167 -0.3323,0.3323 -0.5687,-0.2584 -0.5253,-1.3125 z m -67,-2 c 0.048,-1.165 0.285,-1.4019 0.6042,-0.6042 0.2889,0.7219 0.2534,1.5844 -0.079,1.9167 -0.3323,0.3323 -0.5687,-0.2584 -0.5253,-1.3125 z m -1064.99995,-1 c 0.048,-1.165 0.28494,-1.4019 0.60416,-0.6042 0.28887,0.7219 0.25335,1.5844 -0.0789,1.9167 -0.33229,0.3323 -0.56864,-0.2584 -0.52522,-1.3125 z M 1345.3201,1384 c 0,-3.575 0.1815,-5.0375 0.4033,-3.25 0.2218,1.7875 0.2218,4.7125 0,6.5 -0.2218,1.7875 -0.4033,0.325 -0.4033,-3.25 z M 713,1384.5 c 1.29175,-1.375 2.57363,-2.5 2.84863,-2.5 0.275,0 -0.55688,1.125 -1.84863,2.5 -1.29175,1.375 -2.57363,2.5 -2.84863,2.5 -0.275,0 0.55688,-1.125 1.84863,-2.5 z m 603.3741,-8 c 0,-6.05 0.1669,-8.3961 0.366,-5.2135 0.199,3.1826 0.1972,8.1326 0,11 -0.2013,2.8674 -0.3642,0.2635 -0.3619,-5.7865 z m -199.2952,-2.0833 c 0.048,-1.165 0.285,-1.4019 0.6042,-0.6042 0.2889,0.7219 0.2534,1.5844 -0.079,1.9167 -0.3323,0.3323 -0.5687,-0.2584 -0.5253,-1.3125 z m 375,-3 c 0.048,-1.165 0.285,-1.4019 0.6042,-0.6042 0.2889,0.7219 0.2534,1.5844 -0.079,1.9167 -0.3323,0.3323 -0.5687,-0.2584 -0.5253,-1.3125 z m -1131.99995,-2 c 0.048,-1.165 0.28494,-1.4019 0.60416,-0.6042 0.28887,0.7219 0.25335,1.5844 -0.0789,1.9167 -0.33229,0.3323 -0.56864,-0.2584 -0.52522,-1.3125 z m 985.99995,-3 c 0.048,-1.165 0.285,-1.4019 0.6042,-0.6042 0.2889,0.7219 0.2534,1.5844 -0.079,1.9167 -0.3323,0.3323 -0.5687,-0.2584 -0.5253,-1.3125 z m 213,0 c 0.048,-1.165 0.285,-1.4019 0.6042,-0.6042 0.2889,0.7219 0.2534,1.5844 -0.079,1.9167 -0.3323,0.3323 -0.5687,-0.2584 -0.5253,-1.3125 z M 1030.232,1357 c 0,-1.925 0.2058,-2.7125 0.4573,-1.75 0.2516,0.9625 0.2516,2.5375 0,3.5 -0.2515,0.9625 -0.4573,0.175 -0.4573,-1.75 z m -235.4195,-1.6831 c 0.72187,-0.2889 1.58438,-0.2534 1.91667,0.079 0.33229,0.3323 -0.25834,0.5687 -1.3125,0.5253 -1.16495,-0.048 -1.4019,-0.285 -0.60417,-0.6042 z M 1252.3362,1349 c 0,-4.125 0.1765,-5.8125 0.3923,-3.75 0.2157,2.0625 0.2157,5.4375 0,7.5 -0.2158,2.0625 -0.3923,0.375 -0.3923,-3.75 z m -448.5237,5.3169 c 0.72187,-0.2889 1.58438,-0.2534 1.91667,0.079 0.33229,0.3323 -0.25834,0.5687 -1.3125,0.5253 -1.16495,-0.048 -1.4019,-0.285 -0.60417,-0.6042 z M 1315.3099,1334.5 c 0.01,-3.3 0.1923,-4.5294 0.4148,-2.7321 0.2226,1.7974 0.218,4.4974 -0.01,6 -0.2281,1.5027 -0.4102,0.032 -0.4046,-3.2679 z m 111.6901,1 c 1.2917,-1.375 2.5736,-2.5 2.8486,-2.5 0.275,0 -0.5569,1.125 -1.8486,2.5 -1.2917,1.375 -2.5736,2.5 -2.8486,2.5 -0.275,0 0.5569,-1.125 1.8486,-2.5 z m 50.9243,-0.25 -2.4243,-2.75 2.75,2.4243 c 2.5703,2.2659 3.2086,3.0757 2.4243,3.0757 -0.1791,0 -1.4166,-1.2375 -2.75,-2.75 z M 870.15789,1328 c 0,-1.375 0.22698,-1.9375 0.50439,-1.25 0.27741,0.6875 0.27741,1.8125 0,2.5 -0.27741,0.6875 -0.50439,0.125 -0.50439,-1.25 z m -398.34539,-1.6831 c 0.72187,-0.2889 1.58438,-0.2534 1.91667,0.079 0.33229,0.3323 -0.25834,0.5687 -1.3125,0.5253 -1.16495,-0.048 -1.4019,-0.285 -0.60417,-0.6042 z m 14,0 c 0.72187,-0.2889 1.58438,-0.2534 1.91667,0.079 0.33229,0.3323 -0.25834,0.5687 -1.3125,0.5253 -1.16495,-0.048 -1.4019,-0.285 -0.60417,-0.6042 z m 504,0 c 0.72187,-0.2889 1.58438,-0.2534 1.91667,0.079 0.33229,0.3323 -0.25834,0.5687 -1.3125,0.5253 -1.16495,-0.048 -1.4019,-0.285 -0.60417,-0.6042 z m 15,0 c 0.7219,-0.2889 1.5844,-0.2534 1.9167,0.079 0.3323,0.3323 -0.2584,0.5687 -1.3125,0.5253 -1.165,-0.048 -1.4019,-0.285 -0.6042,-0.6042 z m 237.9375,-0.04 c 1.7875,-0.2218 4.7125,-0.2218 6.5,0 1.7875,0.2218 0.325,0.4033 -3.25,0.4033 -3.575,0 -5.0375,-0.1815 -3.25,-0.4033 z m 206,-0.9389 c 0.6875,-0.2774 1.8125,-0.2774 2.5,0 0.6875,0.2774 0.125,0.5044 -1.25,0.5044 -1.375,0 -1.9375,-0.227 -1.25,-0.5044 z m 7,0 c 0.6875,-0.2774 1.8125,-0.2774 2.5,0 0.6875,0.2774 0.125,0.5044 -1.25,0.5044 -1.375,0 -1.9375,-0.227 -1.25,-0.5044 z M 389.5,1304 c 2.70865,-2.75 5.14982,-5 5.42482,-5 0.275,0 -1.71617,2.25 -4.42482,5 -2.70865,2.75 -5.14982,5 -5.42482,5 -0.275,0 1.71617,-2.25 4.42482,-5 z m 760.5,4.6224 c 0,-0.2076 0.7875,-0.9951 1.75,-1.75 1.5861,-1.2438 1.6214,-1.2085 0.3776,0.3776 -1.3064,1.6657 -2.1276,2.1955 -2.1276,1.3724 z m 224,-6 c 0,-0.2076 0.7875,-0.9951 1.75,-1.75 1.5861,-1.2438 1.6214,-1.2085 0.3776,0.3776 -1.3064,1.6657 -2.1276,2.1955 -2.1276,1.3724 z m -296.595,-7.8724 -1.905,-2.25 2.25,1.905 c 1.2375,1.0477 2.25,2.0602 2.25,2.25 0,0.8002 -0.8048,0.2094 -2.595,-1.905 z m -303.5925,-20.4331 c 0.72187,-0.2889 1.58438,-0.2534 1.91667,0.079 0.33229,0.3323 -0.25834,0.5687 -1.3125,0.5253 -1.16495,-0.048 -1.4019,-0.285 -0.60417,-0.6042 z m 44,0 c 0.72187,-0.2889 1.58438,-0.2534 1.91667,0.079 0.33229,0.3323 -0.25834,0.5687 -1.3125,0.5253 -1.16495,-0.048 -1.4019,-0.285 -0.60417,-0.6042 z m 159,0 c 0.72187,-0.2889 1.58438,-0.2534 1.91667,0.079 0.33229,0.3323 -0.25834,0.5687 -1.3125,0.5253 -1.16495,-0.048 -1.4019,-0.285 -0.60417,-0.6042 z m 265.9375,0.021 c 0.6875,-0.2774 1.8125,-0.2774 2.5,0 0.6875,0.2774 0.125,0.5044 -1.25,0.5044 -1.375,0 -1.9375,-0.227 -1.25,-0.5044 z m 48,0 c 0.6875,-0.2774 1.8125,-0.2774 2.5,0 0.6875,0.2774 0.125,0.5044 -1.25,0.5044 -1.375,0 -1.9375,-0.227 -1.25,-0.5044 z m -827.48097,-1.0307 c 0.97297,-0.2535 2.32297,-0.2369 3,0.037 0.67703,0.2739 -0.11903,0.4813 -1.76903,0.461 -1.65,-0.02 -2.20394,-0.2445 -1.23097,-0.4981 z m 17.48097,0.031 c 0.6875,-0.2774 1.8125,-0.2774 2.5,0 0.6875,0.2774 0.125,0.5044 -1.25,0.5044 -1.375,0 -1.9375,-0.227 -1.25,-0.5044 z m 305.51903,-0.031 c 0.97297,-0.2535 2.32297,-0.2369 3,0.037 0.67703,0.2739 -0.11903,0.4813 -1.76903,0.461 -1.65,-0.02 -2.20394,-0.2445 -1.23097,-0.4981 z m 20,0 c 0.97297,-0.2535 2.32297,-0.2369 3,0.037 0.67703,0.2739 -0.11903,0.4813 -1.76903,0.461 -1.65,-0.02 -2.20394,-0.2445 -1.23097,-0.4981 z m 185.49263,-0.014 c 1.24391,-0.2392 3.04391,-0.2301 4,0.02 0.95609,0.2503 -0.0617,0.446 -2.26166,0.4349 -2.2,-0.011 -2.98225,-0.2159 -1.73834,-0.4551 z m 22.48834,0.018 c 0.9625,-0.2516 2.5375,-0.2516 3.5,0 0.9625,0.2515 0.175,0.4573 -1.75,0.4573 -1.925,0 -2.7125,-0.2058 -1.75,-0.4573 z m 457.5625,0.01 c 0.7219,-0.2889 1.5844,-0.2534 1.9167,0.079 0.3323,0.3323 -0.2584,0.5687 -1.3125,0.5253 -1.165,-0.048 -1.4019,-0.285 -0.6042,-0.6042 z m -21.5323,-1.0532 c 2.6291,-0.2066 6.6791,-0.2042 9,0.01 2.3209,0.2097 0.1698,0.3788 -4.7802,0.3757 -4.95,0 -6.8489,-0.1746 -4.2198,-0.3813 z M 622.25,1244.2517 c 9.2125,-0.165 24.2875,-0.165 33.5,0 9.2125,0.165 1.675,0.3001 -16.75,0.3001 -18.425,0 -25.9625,-0.1351 -16.75,-0.3001 z M 661,658.86296 C 496.825,374.44295 361.92313,140.67015 361.21806,139.36784 L 359.93613,137 H 480.46806 C 561.05108,137 601,137.33517 601,138.01126 c 0,0.5562 55.64325,97.4187 123.65167,215.25 C 792.6601,471.09257 868.3002,602.15 892.7408,644.5 958.25227,758.01647 959.40698,760 959.97886,760 c 0.28954,0 30.06862,-51.1875 66.17574,-113.75 36.1071,-62.5625 85.6507,-148.4 110.0968,-190.75 24.4461,-42.35 75.5652,-130.91473 113.598,-196.81051 C 1287.8822,192.79372 1319,138.45622 1319,137.93949 1319,137.3587 1365.0147,137 1439.5202,137 h 120.5203 l -2.7703,4.84232 C 1521.3979,204.54666 960.34871,1175.9659 960,1175.9759 c -0.275,0.01 -134.825,-232.69293 -299,-517.11294 z"
       style="fill:#40b782" />
    <path
       id="path32"
       d="m 1178.269,1594.307 c 0.973,-0.2535 2.323,-0.2369 3,0.037 0.6771,0.2739 -0.119,0.4813 -1.769,0.461 -1.65,-0.02 -2.2039,-0.2445 -1.231,-0.4981 z m 26,0 c 0.973,-0.2535 2.323,-0.2369 3,0.037 0.6771,0.2739 -0.119,0.4813 -1.769,0.461 -1.65,-0.02 -2.2039,-0.2445 -1.231,-0.4981 z M 1281,1567.6224 c 0,-0.2076 0.7875,-0.9951 1.75,-1.75 1.5861,-1.2438 1.6214,-1.2085 0.3776,0.3776 -1.3064,1.6657 -2.1276,2.1955 -2.1276,1.3724 z m -91.75,-28.3387 c 1.5125,-0.2291 3.9875,-0.2291 5.5,0 1.5125,0.2292 0.275,0.4166 -2.75,0.4166 -3.025,0 -4.2625,-0.1874 -2.75,-0.4166 z m 125.8289,-47.867 c 0.048,-1.165 0.285,-1.4019 0.6042,-0.6042 0.2889,0.7219 0.2534,1.5844 -0.079,1.9167 -0.3323,0.3323 -0.5687,-0.2584 -0.5253,-1.3125 z m 129.6828,-0.124 c 1.2439,-0.2392 3.0439,-0.2301 4,0.02 0.956,0.2503 -0.062,0.446 -2.2617,0.4349 -2.2,-0.011 -2.9823,-0.2159 -1.7383,-0.4551 z m 9.9883,0 c 1.2375,-0.2384 3.2625,-0.2384 4.5,0 1.2375,0.2383 0.225,0.4333 -2.25,0.4333 -2.475,0 -3.4875,-0.195 -2.25,-0.4333 z m -680.5,-2.0293 c 2.6125,-0.206 6.8875,-0.206 9.5,0 2.6125,0.206 0.475,0.3745 -4.75,0.3745 -5.225,0 -7.3625,-0.1685 -4.75,-0.3745 z m -302.5,-0.9707 c 1.2375,-0.2384 3.2625,-0.2384 4.5,0 1.2375,0.2383 0.225,0.4333 -2.25,0.4333 -2.475,0 -3.4875,-0.195 -2.25,-0.4333 z m 17.5,-0.011 c 1.5125,-0.2291 3.9875,-0.2291 5.5,0 1.5125,0.2292 0.275,0.4166 -2.75,0.4166 -3.025,0 -4.2625,-0.1874 -2.75,-0.4166 z m 318.01903,0.023 c 0.97297,-0.2535 2.32297,-0.2369 3,0.037 0.67703,0.2739 -0.11903,0.4813 -1.76903,0.461 -1.65,-0.02 -2.20394,-0.2445 -1.23097,-0.4981 z M 1253.1579,1487 c 0,-1.375 0.227,-1.9375 0.5044,-1.25 0.2774,0.6875 0.2774,1.8125 0,2.5 -0.2774,0.6875 -0.5044,0.125 -0.5044,-1.25 z m -795.3454,0.3169 c 0.72187,-0.2889 1.58438,-0.2534 1.91667,0.079 0.33229,0.3323 -0.25834,0.5687 -1.3125,0.5253 -1.16495,-0.048 -1.4019,-0.285 -0.60417,-0.6042 z m 53,0 c 0.72187,-0.2889 1.58438,-0.2534 1.91667,0.079 0.33229,0.3323 -0.25834,0.5687 -1.3125,0.5253 -1.16495,-0.048 -1.4019,-0.285 -0.60417,-0.6042 z m 310.9375,0.021 c 0.6875,-0.2774 1.8125,-0.2774 2.5,0 0.6875,0.2774 0.125,0.5044 -1.25,0.5044 -1.375,0 -1.9375,-0.227 -1.25,-0.5044 z m 380.0625,-0.021 c 0.7219,-0.2889 1.5844,-0.2534 1.9167,0.079 0.3323,0.3323 -0.2584,0.5687 -1.3125,0.5253 -1.165,-0.048 -1.4019,-0.285 -0.6042,-0.6042 z m 16.9375,0.021 c 0.6875,-0.2774 1.8125,-0.2774 2.5,0 0.6875,0.2774 0.125,0.5044 -1.25,0.5044 -1.375,0 -1.9375,-0.227 -1.25,-0.5044 z m -384.9375,-1.0208 c 0.72187,-0.2889 1.58438,-0.2534 1.91667,0.079 0.33229,0.3323 -0.25834,0.5687 -1.3125,0.5253 -1.16495,-0.048 -1.4019,-0.285 -0.60417,-0.6042 z M 968.47596,1408.5 c 8e-5,-42.9 0.12328,-60.3041 0.27377,-38.6757 0.15049,21.6283 0.15042,56.7283 -1.5e-4,78 -0.15057,21.2716 -0.2737,3.5757 -0.27362,-39.3243 z m 347.68194,70.5 c 0,-1.375 0.227,-1.9375 0.5044,-1.25 0.2774,0.6875 0.2774,1.8125 0,2.5 -0.2774,0.6875 -0.5044,0.125 -0.5044,-1.25 z m -646.00001,-13 c 0,-1.375 0.22698,-1.9375 0.50439,-1.25 0.27741,0.6875 0.27741,1.8125 0,2.5 -0.27741,0.6875 -0.50439,0.125 -0.50439,-1.25 z m 474.71451,-1.75 c -1.2438,-1.5861 -1.2085,-1.6214 0.3776,-0.3776 0.9625,0.7549 1.75,1.5424 1.75,1.75 0,0.8231 -0.8212,0.2933 -2.1276,-1.3724 z m -4.4674,-4.5 -1.905,-2.25 2.25,1.905 c 1.2375,1.0477 2.25,2.0602 2.25,2.25 0,0.8002 -0.8048,0.2094 -2.595,-1.905 z m -536.32605,-1.3333 c 0.048,-1.165 0.28494,-1.4019 0.60416,-0.6042 0.28887,0.7219 0.25335,1.5844 -0.0789,1.9167 -0.33229,0.3323 -0.56864,-0.2584 -0.52522,-1.3125 z m 1.17323,-17.9167 c 0.0111,-2.2 0.21589,-2.9823 0.45508,-1.7383 0.23919,1.2439 0.23011,3.0439 -0.0202,4 -0.25029,0.956 -0.446,-0.062 -0.4349,-2.2617 z m 186.49782,2.8377 c 0.6875,-0.2774 1.8125,-0.2774 2.5,0 0.6875,0.2774 0.125,0.5044 -1.25,0.5044 -1.375,0 -1.9375,-0.227 -1.25,-0.5044 z m -298.9375,-8.0208 c 0.72187,-0.2889 1.58438,-0.2534 1.91667,0.079 0.33229,0.3323 -0.25834,0.5687 -1.3125,0.5253 -1.16495,-0.048 -1.4019,-0.285 -0.60417,-0.6042 z m 8.65313,-53.8169 c 1.6e-4,-29.15 0.12787,-40.9308 0.2838,-26.1796 0.15592,14.7512 0.15579,38.6012 -3e-4,53 -0.15609,14.3988 -0.28367,2.3296 -0.2835,-26.8204 z m 170.01033,-26 c 8e-5,-42.9 0.12328,-60.3041 0.27377,-38.6757 0.15049,21.6283 0.15042,56.7283 -1.5e-4,78 -0.15057,21.2716 -0.2737,3.5757 -0.27362,-39.3243 z m -231.55165,66.75 -2.42431,-2.75 2.75,2.4243 c 2.57029,2.2659 3.20859,3.0757 2.42431,3.0757 -0.17912,0 -1.41662,-1.2375 -2.75,-2.75 z M 1253.2997,1397 c 0,-3.025 0.1874,-4.2625 0.4166,-2.75 0.2291,1.5125 0.2291,3.9875 0,5.5 -0.2292,1.5125 -0.4166,0.275 -0.4166,-2.75 z m 63.0365,-3 c 0,-4.125 0.1765,-5.8125 0.3923,-3.75 0.2157,2.0625 0.2157,5.4375 0,7.5 -0.2158,2.0625 -0.3923,0.375 -0.3923,-3.75 z m 29.7427,5.4167 c 0.048,-1.165 0.285,-1.4019 0.6042,-0.6042 0.2889,0.7219 0.2534,1.5844 -0.079,1.9167 -0.3323,0.3323 -0.5687,-0.2584 -0.5253,-1.3125 z M 360.15789,1394 c 0,-1.375 0.22698,-1.9375 0.50439,-1.25 0.27741,0.6875 0.27741,1.8125 0,2.5 -0.27741,0.6875 -0.50439,0.125 -0.50439,-1.25 z m 1199.00001,-3 c 0,-1.375 0.227,-1.9375 0.5044,-1.25 0.2774,0.6875 0.2774,1.8125 0,2.5 -0.2774,0.6875 -0.5044,0.125 -0.5044,-1.25 z m -146.8217,-9 c 0,-4.125 0.1765,-5.8125 0.3923,-3.75 0.2157,2.0625 0.2157,5.4375 0,7.5 -0.2158,2.0625 -0.3923,0.375 -0.3923,-3.75 z m -229.0638,2 c 0,-2.475 0.195,-3.4875 0.4333,-2.25 0.2384,1.2375 0.2384,3.2625 0,4.5 -0.2383,1.2375 -0.4333,0.225 -0.4333,-2.25 z m -823.11451,-11 c 0,-1.375 0.22698,-1.9375 0.50439,-1.25 0.27741,0.6875 0.27741,1.8125 0,2.5 -0.27741,0.6875 -0.50439,0.125 -0.50439,-1.25 z m 1198.92101,-3.5833 c 0.048,-1.165 0.285,-1.4019 0.6042,-0.6042 0.2889,0.7219 0.2534,1.5844 -0.079,1.9167 -0.3323,0.3323 -0.5687,-0.2584 -0.5253,-1.3125 z m -752.2664,-15.0998 c 0.72187,-0.2889 1.58438,-0.2534 1.91667,0.079 0.33229,0.3323 -0.25834,0.5687 -1.3125,0.5253 -1.16495,-0.048 -1.4019,-0.285 -0.60417,-0.6042 z m 223.2664,-1.9002 c 0.048,-1.165 0.285,-1.4019 0.6042,-0.6042 0.2889,0.7219 0.2534,1.5844 -0.079,1.9167 -0.3323,0.3323 -0.5687,-0.2584 -0.5253,-1.3125 z M 1315.2724,1344 c 0,-2.475 0.195,-3.4875 0.4333,-2.25 0.2384,1.2375 0.2384,3.2625 0,4.5 -0.2383,1.2375 -0.4333,0.225 -0.4333,-2.25 z M 1195,1345.6871 c 0,-0.1721 1.4625,-1.6346 3.25,-3.25 l 3.25,-2.9371 -2.9371,3.25 c -2.7378,3.0295 -3.5629,3.7097 -3.5629,2.9371 z M 1252.3494,1334 c 0,-4.675 0.1723,-6.5875 0.3828,-4.25 0.2105,2.3375 0.2105,6.1625 0,8.5 -0.2105,2.3375 -0.3828,0.425 -0.3828,-4.25 z m -157.2705,3.4167 c 0.048,-1.165 0.285,-1.4019 0.6042,-0.6042 0.2889,0.7219 0.2534,1.5844 -0.079,1.9167 -0.3323,0.3323 -0.5687,-0.2584 -0.5253,-1.3125 z M 870.19495,1332.5 c 0.0204,-1.65 0.2445,-2.2039 0.49804,-1.231 0.25354,0.973 0.23687,2.323 -0.0371,3 -0.27393,0.6771 -0.48137,-0.119 -0.46099,-1.769 z m 367.61755,-6.1831 c 0.7219,-0.2889 1.5844,-0.2534 1.9167,0.079 0.3323,0.3323 -0.2584,0.5687 -1.3125,0.5253 -1.165,-0.048 -1.4019,-0.285 -0.6042,-0.6042 z m -454.03607,-3.0504 c 2.35204,-0.2112 5.95204,-0.2083 8,0.01 2.04796,0.2149 0.12357,0.3877 -4.27643,0.3841 -4.4,0 -6.07561,-0.1795 -3.72357,-0.3907 z M 1145.5,1313 c 2.1482,-2.2 4.1309,-4 4.4059,-4 0.275,0 -1.2577,1.8 -3.4059,4 -2.1482,2.2 -4.1309,4 -4.4059,4 -0.275,0 1.2577,-1.8 3.4059,-4 z m 388.3724,-8.75 c -1.2438,-1.5861 -1.2085,-1.6214 0.3776,-0.3776 0.9625,0.7549 1.75,1.5424 1.75,1.75 0,0.8231 -0.8212,0.2933 -2.1276,-1.3724 z m -7,-7 c -1.2438,-1.5861 -1.2085,-1.6214 0.3776,-0.3776 0.9625,0.7549 1.75,1.5424 1.75,1.75 0,0.8231 -0.8212,0.2933 -2.1276,-1.3724 z m -670.46741,-6.5 -1.90499,-2.25 2.25,1.905 c 2.11444,1.7902 2.70524,2.595 1.90499,2.595 -0.18976,0 -1.20226,-1.0125 -2.25,-2.25 z M 501.46408,1227 c 0,-27.775 0.12831,-39.1375 0.28513,-25.25 0.15682,13.8875 0.15682,36.6125 0,50.5 -0.15682,13.8875 -0.28513,2.525 -0.28513,-25.25 z m 467.34842,48.3169 c 0.72187,-0.2889 1.58438,-0.2534 1.91667,0.079 0.33229,0.3323 -0.25834,0.5687 -1.3125,0.5253 -1.16495,-0.048 -1.4019,-0.285 -0.60417,-0.6042 z m 332,0 c 0.7219,-0.2889 1.5844,-0.2534 1.9167,0.079 0.3323,0.3323 -0.2584,0.5687 -1.3125,0.5253 -1.165,-0.048 -1.4019,-0.285 -0.6042,-0.6042 z m -321,-1 c 0.72187,-0.2889 1.58438,-0.2534 1.91667,0.079 0.33229,0.3323 -0.25834,0.5687 -1.3125,0.5253 -1.16495,-0.048 -1.4019,-0.285 -0.60417,-0.6042 z m 266.9375,0.021 c 0.6875,-0.2774 1.8125,-0.2774 2.5,0 0.6875,0.2774 0.125,0.5044 -1.25,0.5044 -1.375,0 -1.9375,-0.227 -1.25,-0.5044 z m 39.519,-0.031 c 0.973,-0.2535 2.323,-0.2369 3,0.037 0.6771,0.2739 -0.119,0.4813 -1.769,0.461 -1.65,-0.02 -2.2039,-0.2445 -1.231,-0.4981 z m -816.5413,-1.0287 c 1.77523,-0.2209 4.92523,-0.2246 7,-0.01 2.07476,0.2165 0.6223,0.3972 -3.2277,0.4017 -3.85,0 -5.54754,-0.1727 -3.7723,-0.3936 z m 324.04873,-0.012 c 2.35204,-0.2112 5.95204,-0.2083 8,0.01 2.04796,0.2149 0.12357,0.3877 -4.27643,0.3841 -4.4,0 -6.07561,-0.1795 -3.72357,-0.3907 z m 206.97357,0 c 2.3375,-0.2105 6.1625,-0.2105 8.5,0 2.3375,0.2105 0.425,0.3828 -4.25,0.3828 -4.675,0 -6.5875,-0.1723 -4.25,-0.3828 z m 437.0625,0.049 c 0.7219,-0.2889 1.5844,-0.2534 1.9167,0.079 0.3323,0.3323 -0.2584,0.5687 -1.3125,0.5253 -1.165,-0.048 -1.4019,-0.285 -0.6042,-0.6042 z M 671.23565,1211.2637 671,1178.0273 l -32.75,-0.2778 -32.75,-0.2778 32.78138,-0.2358 c 25.59051,-0.1842 32.88729,0.04 33.26418,1.0222 0.26553,0.692 0.35745,15.8795 0.20426,33.75 L 671.4713,1244.5 Z M 948.31534,740.75 C 942.18995,730.1625 917.1814,686.85 892.7408,644.5 868.3002,602.15 792.6601,471.09257 724.65167,353.26126 656.64325,235.42996 601,138.56549 601,138.00688 c 0,-0.68293 36.10214,-0.93231 110.2034,-0.76126 L 821.40681,137.5 890.4534,257.22578 C 928.42903,323.07496 959.725,376.9449 960,376.93676 c 0.275,-0.008 31.55264,-53.88474 69.5059,-119.72578 L 1098.5117,137.5 l 110.2442,-0.25438 c 68.6391,-0.15839 110.2441,0.10182 110.2441,0.68949 0,0.51913 -31.1178,54.85861 -69.1506,120.75438 C 1211.8166,324.58527 1160.6975,413.15 1136.2514,455.5 1111.8053,497.85 1062.2617,583.6875 1026.1546,646.25 990.04748,708.8125 960.2684,760 959.97886,760 c -0.28954,0 -5.53812,-8.6625 -11.66352,-19.25 z"
       style="fill:#33485d" />
    <path
       id="path30"
       d="m 1172.6137,1593.9267 c -12.9374,-1.2359 -27.549,-4.2576 -40.0413,-8.2807 l -10.0724,-3.2439 -0.2647,-30.2228 -0.2647,-30.2229 6.1318,3.0953 c 8.9721,4.5291 27.9281,10.5431 39.3976,12.4994 13.0744,2.2301 36.2597,2.2737 46.4059,0.087 20.4058,-4.3971 32.6345,-15.7412 37.4887,-34.7767 1.4338,-5.6227 3.2735,-23.8617 2.4068,-23.8617 -0.2511,0 -3.2472,1.1339 -6.658,2.5198 -23.4712,9.5373 -58.7368,7.7647 -82.5645,-4.1499 -16.5143,-8.2577 -30.1694,-22.3408 -37.6054,-38.7842 -8.5232,-18.8476 -11.8804,-43.4448 -8.9077,-65.2633 3.3151,-24.3323 11.6216,-42.5133 26.669,-58.3725 20.1243,-21.2101 48.0578,-33.5869 88.2652,-39.1088 12.3368,-1.6942 56.7959,-1.6757 72,0.03 11.5214,1.2926 46.0026,6.7981 46.6535,7.449 0.1905,0.1904 -4.6002,10.6588 -10.6459,23.263 -9.737,20.2998 -11.2501,22.8972 -13.2499,22.7456 -1.2417,-0.094 -4.6454,-0.3697 -7.5638,-0.6122 l -5.3061,-0.441 0.7397,24.6122 c 0.4068,13.5367 0.7695,48.9122 0.8061,78.6122 0.058,46.8444 -0.1712,55.6564 -1.7263,66.5 -3.3355,23.2569 -7.8421,36.4681 -17.2769,50.6478 -19.8403,29.818 -51.5991,44.4646 -99.2864,45.7889 -8.6042,0.239 -20.0929,0.01 -25.5303,-0.51 z m 72.6889,-160.5337 c 3.9586,-0.8839 7.5485,-1.9325 7.9776,-2.3302 0.4291,-0.3977 0.468,-24.2631 0.086,-53.0342 l -0.6939,-52.311 -10.5863,0.6136 c -19.656,1.1393 -34.0002,6.5662 -44.0719,16.6741 -9.9846,10.0203 -14.3133,22.4383 -14.2901,40.9947 0.022,17.4419 3.8234,29.2147 12.4594,38.5836 5.0106,5.4358 9.3204,8.1527 16.6526,10.4976 7.3216,2.3415 22.7136,2.4893 32.4662,0.3118 z m -672.28616,129.5301 c -16.14311,-7.6585 -29.52298,-14.0963 -29.73306,-14.3064 -0.21007,-0.2101 3.57773,-2.5172 8.41733,-5.1269 33.98547,-18.3263 47.40612,-38.0618 52.35519,-76.9898 0.91345,-7.185 1.38489,-35.124 1.67474,-99.25 l 0.4034,-89.25 H 638.56702 671 v 90.3548 c 0,109.5135 -0.67068,120.7791 -8.61121,144.6452 -9.31961,28.011 -26.0523,46.6341 -55.14744,61.3777 l -4.87382,2.4697 z M 1440.5,1490.8925 c -59.1008,-4.5338 -94.4618,-44.4864 -94.4941,-106.7642 -0.035,-68.3589 41.5598,-111.0888 108.1717,-111.1224 49.975,-0.025 85.0814,23.1311 99.2249,65.449 9.1778,27.4602 8.1948,64.7386 -2.4051,91.2105 -6.416,16.0232 -17.1048,30.5448 -29.4974,40.0748 -14.6069,11.2327 -36.5355,19.5446 -54.8036,20.7731 -4.508,0.3032 -9.9964,0.6851 -12.1964,0.8488 -2.2,0.1636 -8.5,-0.048 -14,-0.4696 z m 28.7586,-55.2306 c 9.9672,-4.8765 17.562,-15.3711 21.4658,-29.6619 2.5176,-9.2161 2.5399,-38.7365 0.036,-47.7897 -4.0333,-14.584 -11.2795,-24.6413 -21.4154,-29.7233 -5.2812,-2.648 -6.8115,-2.9334 -15.8626,-2.9589 -9.3091,-0.026 -10.4846,0.2017 -16.6226,3.2218 -16.7397,8.2366 -24.2574,25.134 -24.136,54.2501 0.09,21.6667 4.1031,34.5553 14.0788,45.2201 7.7869,8.3249 14.5661,10.8852 27.7533,10.4816 7.5074,-0.2298 10.0216,-0.7496 14.7026,-3.0398 z m -1003.01927,52.2638 c -55.80951,-3.5556 -90.29887,-27.2566 -101.67815,-69.8732 -7.57084,-28.3536 -4.86703,-62.25 6.92589,-86.8267 5.3246,-11.0966 8.71525,-16.1701 16.23366,-24.2909 14.92802,-16.124 36.55878,-27.2032 61.20549,-31.3492 12.14017,-2.0422 36.08509,-2.0781 45.57341,-0.068 3.84979,0.8154 7.11229,1.4826 7.25,1.4826 0.1377,0 0.25037,-22.5 0.25037,-50 v -50 h 32.5 32.5 v 151.3491 151.3491 l -12.25,2.1128 c -20.11473,3.4692 -35.18075,5.1382 -55.76522,6.1778 -10.71663,0.5412 -19.70978,0.9242 -19.98478,0.851 -0.275,-0.073 -6.0173,-0.4845 -12.76067,-0.9141 z M 500.75,1434.6612 c 0.97412,-0.6072 1.25,-12.3162 1.25,-53.0524 v -52.2732 l -3.75,-1.2398 c -6.48385,-2.1436 -25.77417,-2.5335 -33.64697,-0.6801 -18.76639,4.418 -32.08212,18.1997 -36.15608,37.4212 -1.80916,8.5359 -1.81349,25.77 -0.009,34.2851 2.9341,13.8424 11.72022,25.8958 22.79386,31.2701 9.83791,4.7745 14.92874,5.6138 32.26779,5.3198 8.8,-0.1493 16.5625,-0.6221 17.25,-1.0507 z m 251.83475,53.2971 c -37.36259,-5.8596 -54.55002,-24.5936 -54.55002,-59.4583 0,-28.1244 11.18664,-45.7372 36.56388,-57.5679 14.93483,-6.9624 37.24507,-12.4248 60.90139,-14.9108 17.22561,-1.8102 15.5,-0.5144 15.5,-11.6392 0,-11.5908 -1.53761,-15.5954 -7.07216,-18.4189 -13.52617,-6.9006 -54.92745,-0.4319 -83.78366,13.0906 -4.63156,2.1704 -8.58374,3.9462 -8.7826,3.9462 C 711.16271,1343 711,1331.8115 711,1318.1366 v -24.8635 l 5.75,-2.5653 c 16.42149,-7.3265 34.95809,-12.6127 53.10185,-15.1433 14.33001,-1.9987 39.74155,-2.0279 51.8778,-0.059 25.54001,4.1422 41.4065,16.4289 46.1303,35.7224 2.45866,10.0419 3.10895,30.7527 3.12422,99.5035 l 0.0158,71.231 -2.25,0.4764 c -20.37075,4.3134 -99.79467,8.0875 -116.16525,5.52 z m 47.44148,-44.978 c 4.66058,-0.5608 9.71127,-1.2715 11.22377,-1.5794 l 2.75,-0.5598 v -21.9206 c 0,-21.126 -0.0712,-21.9205 -1.96562,-21.9205 -4.3078,0 -24.4355,3.1844 -31.42232,4.9713 C 763.60185,1406.3218 756,1413.4816 756,1425.1522 c 0,8.7757 5.64068,15.6306 14.58929,17.7296 5.4159,1.2704 19.3121,1.3169 29.43694,0.098 z M 903,1387.1872 v -98.8128 l 13.25,-3.1519 c 32.6733,-7.7723 59.61957,-11.2225 87.6492,-11.2225 27.4852,0 41.7564,2.6105 58.0057,10.6105 16.7539,8.2485 26.8759,20.9942 31.6781,39.8895 1.6121,6.3432 1.8138,14.2486 2.1491,84.25 l 0.3702,77.25 h -32.5127 -32.5127 l -0.3268,-69.75 c -0.3663,-78.172 -0.014,-74.4207 -7.7422,-82.4104 -6.4451,-6.6631 -12.5033,-8.2706 -28.45244,-7.5498 -6.65106,0.3005 -15.19353,1.3664 -19.05546,2.3775 l -7,1.8327 -0.25613,77.75 -0.25613,77.75 H 935.49387 903 Z M 606,1211 v -33 h 32.5 32.5 v 33 33 H 638.5 606 Z"
       style="fill:#082d1f" />
  </g>
</svg>
